<mxfile host="app.diagrams.net" modified="2022-12-06T18:27:42.134Z" agent="5.0 (Macintosh)" etag="xrd_mrAiBTFmvj2xrvlg" version="20.6.0" type="github">
  <diagram id="URH_Rkb7ACPjiszGY3Pl" name="Page-1">
    <mxGraphModel dx="1266" dy="714" grid="1" gridSize="10" guides="1" tooltips="1" connect="1" arrows="1" fold="1" page="1" pageScale="1" pageWidth="827" pageHeight="1169" math="0" shadow="0">
      <root>
        <mxCell id="0" />
        <mxCell id="1" parent="0" />
        <mxCell id="OgSYJwubmOabAng2fei1-1" value="" style="outlineConnect=0;dashed=0;verticalLabelPosition=bottom;verticalAlign=top;align=center;html=1;shape=mxgraph.aws3.step_functions;fillColor=#D9A741;gradientColor=none;" parent="1" vertex="1">
          <mxGeometry x="210" y="300" width="120" height="110" as="geometry" />
        </mxCell>
        <mxCell id="OgSYJwubmOabAng2fei1-2" value="" style="outlineConnect=0;dashed=0;verticalLabelPosition=bottom;verticalAlign=top;align=center;html=1;shape=mxgraph.aws3.lambda_function;fillColor=#F58534;gradientColor=none;" parent="1" vertex="1">
          <mxGeometry x="580" y="310" width="69" height="72" as="geometry" />
        </mxCell>
        <mxCell id="OgSYJwubmOabAng2fei1-4" value="" style="curved=1;endArrow=classic;html=1;rounded=0;exitX=1;exitY=0.21;exitDx=0;exitDy=0;exitPerimeter=0;entryX=0.145;entryY=0.145;entryDx=0;entryDy=0;entryPerimeter=0;" parent="1" source="OgSYJwubmOabAng2fei1-1" target="OgSYJwubmOabAng2fei1-2" edge="1">
          <mxGeometry width="50" height="50" relative="1" as="geometry">
            <mxPoint x="390" y="350" as="sourcePoint" />
            <mxPoint x="440" y="300" as="targetPoint" />
            <Array as="points">
              <mxPoint x="340" y="270" />
              <mxPoint x="450" y="260" />
            </Array>
          </mxGeometry>
        </mxCell>
        <mxCell id="OgSYJwubmOabAng2fei1-7" value="" style="curved=1;endArrow=classic;html=1;rounded=0;exitX=0.145;exitY=0.855;exitDx=0;exitDy=0;exitPerimeter=0;entryX=1;entryY=0.79;entryDx=0;entryDy=0;entryPerimeter=0;" parent="1" source="OgSYJwubmOabAng2fei1-2" target="OgSYJwubmOabAng2fei1-1" edge="1">
          <mxGeometry width="50" height="50" relative="1" as="geometry">
            <mxPoint x="480" y="370" as="sourcePoint" />
            <mxPoint x="380" y="300" as="targetPoint" />
            <Array as="points">
              <mxPoint x="440" y="520" />
              <mxPoint x="390" y="300" />
            </Array>
          </mxGeometry>
        </mxCell>
        <mxCell id="OgSYJwubmOabAng2fei1-8" value="Invoke lambda function" style="text;html=1;strokeColor=none;fillColor=none;align=center;verticalAlign=middle;whiteSpace=wrap;rounded=0;fontStyle=1" parent="1" vertex="1">
          <mxGeometry x="360" y="220" width="160" height="30" as="geometry" />
        </mxCell>
        <mxCell id="OgSYJwubmOabAng2fei1-9" value="Response from lambda function" style="text;html=1;strokeColor=none;fillColor=none;align=center;verticalAlign=middle;whiteSpace=wrap;rounded=0;fontStyle=1" parent="1" vertex="1">
          <mxGeometry x="370" y="460" width="190" height="30" as="geometry" />
        </mxCell>
        <mxCell id="OgSYJwubmOabAng2fei1-10" value="Step functions" style="text;html=1;strokeColor=#d6b656;fillColor=#fff2cc;align=center;verticalAlign=middle;whiteSpace=wrap;rounded=0;" parent="1" vertex="1">
          <mxGeometry x="170" y="260" width="110" height="30" as="geometry" />
        </mxCell>
        <mxCell id="OgSYJwubmOabAng2fei1-11" value="Lambda functions" style="text;html=1;strokeColor=#d79b00;fillColor=#ffe6cc;align=center;verticalAlign=middle;whiteSpace=wrap;rounded=0;" parent="1" vertex="1">
          <mxGeometry x="580" y="270" width="110" height="30" as="geometry" />
        </mxCell>
      </root>
    </mxGraphModel>
  </diagram>
</mxfile>
